<svg id="visual" viewBox="0 0 900 600" width="900" height="600" xmlns="http://www.w3.org/2000/svg" xmlns:xlink="http://www.w3.org/1999/xlink" version="1.1"><rect x="0" y="0" width="900" height="600" fill="#1A120B"></rect><path d="M0 103L39 92L78 70L117 77L157 35L196 85L235 62L274 70L313 42L352 24L391 79L430 30L470 93L509 44L548 61L587 75L626 63L665 100L704 82L743 40L783 72L822 106L861 94L900 72L900 601L861 601L822 601L783 601L743 601L704 601L665 601L626 601L587 601L548 601L509 601L470 601L430 601L391 601L352 601L313 601L274 601L235 601L196 601L157 601L117 601L78 601L39 601L0 601Z" fill="#3c2a21"></path><path d="M0 158L39 119L78 137L117 122L157 94L196 141L235 176L274 159L313 112L352 122L391 96L430 105L470 132L509 111L548 93L587 122L626 128L665 156L704 112L743 148L783 147L822 176L861 146L900 87L900 601L861 601L822 601L783 601L743 601L704 601L665 601L626 601L587 601L548 601L509 601L470 601L430 601L391 601L352 601L313 601L274 601L235 601L196 601L157 601L117 601L78 601L39 601L0 601Z" fill="#3e2f22"></path><path d="M0 163L39 181L78 211L117 182L157 201L196 217L235 220L274 182L313 235L352 170L391 222L430 206L470 243L509 204L548 227L587 175L626 164L665 167L704 184L743 227L783 157L822 174L861 176L900 173L900 601L861 601L822 601L783 601L743 601L704 601L665 601L626 601L587 601L548 601L509 601L470 601L430 601L391 601L352 601L313 601L274 601L235 601L196 601L157 601L117 601L78 601L39 601L0 601Z" fill="#3f3524"></path><path d="M0 302L39 249L78 238L117 290L157 265L196 229L235 239L274 299L313 250L352 257L391 230L430 229L470 252L509 267L548 280L587 268L626 225L665 259L704 259L743 270L783 291L822 283L861 298L900 254L900 601L861 601L822 601L783 601L743 601L704 601L665 601L626 601L587 601L548 601L509 601L470 601L430 601L391 601L352 601L313 601L274 601L235 601L196 601L157 601L117 601L78 601L39 601L0 601Z" fill="#3e3b28"></path><path d="M0 358L39 339L78 352L117 356L157 370L196 357L235 345L274 329L313 351L352 305L391 358L430 294L470 300L509 304L548 327L587 316L626 329L665 316L704 337L743 373L783 370L822 350L861 291L900 316L900 601L861 601L822 601L783 601L743 601L704 601L665 601L626 601L587 601L548 601L509 601L470 601L430 601L391 601L352 601L313 601L274 601L235 601L196 601L157 601L117 601L78 601L39 601L0 601Z" fill="#3d412d"></path><path d="M0 369L39 396L78 370L117 413L157 420L196 432L235 424L274 415L313 357L352 389L391 402L430 359L470 440L509 393L548 380L587 430L626 378L665 414L704 377L743 391L783 385L822 397L861 366L900 428L900 601L861 601L822 601L783 601L743 601L704 601L665 601L626 601L587 601L548 601L509 601L470 601L430 601L391 601L352 601L313 601L274 601L235 601L196 601L157 601L117 601L78 601L39 601L0 601Z" fill="#3c4633"></path><path d="M0 506L39 506L78 508L117 505L157 489L196 481L235 438L274 449L313 445L352 454L391 447L430 424L470 493L509 423L548 444L587 509L626 441L665 488L704 503L743 508L783 500L822 449L861 437L900 475L900 601L861 601L822 601L783 601L743 601L704 601L665 601L626 601L587 601L548 601L509 601L470 601L430 601L391 601L352 601L313 601L274 601L235 601L196 601L157 601L117 601L78 601L39 601L0 601Z" fill="#3a4c3b"></path><path d="M0 548L39 518L78 487L117 497L157 488L196 530L235 496L274 544L313 566L352 535L391 535L430 522L470 570L509 535L548 492L587 504L626 517L665 491L704 557L743 513L783 493L822 530L861 576L900 545L900 601L861 601L822 601L783 601L743 601L704 601L665 601L626 601L587 601L548 601L509 601L470 601L430 601L391 601L352 601L313 601L274 601L235 601L196 601L157 601L117 601L78 601L39 601L0 601Z" fill="#395144"></path></svg>