<svg id="visual" viewBox="0 0 960 540" width="960" height="540" xmlns="http://www.w3.org/2000/svg" xmlns:xlink="http://www.w3.org/1999/xlink" version="1.1"><path d="M0 120L87 93L175 60L262 136L349 109L436 71L524 109L611 104L698 66L785 131L873 104L960 71L960 0L873 0L785 0L698 0L611 0L524 0L436 0L349 0L262 0L175 0L87 0L0 0Z" fill="#edf1d6"></path><path d="M0 152L87 163L175 104L262 174L349 195L436 120L524 179L611 168L698 141L785 179L873 152L960 104L960 69L873 102L785 129L698 64L611 102L524 107L436 69L349 107L262 134L175 58L87 91L0 118Z" fill="#dbe4c1"></path><path d="M0 249L87 271L175 222L262 293L349 298L436 179L524 222L611 228L698 190L785 271L873 201L960 152L960 102L873 150L785 177L698 139L611 166L524 177L436 118L349 193L262 172L175 102L87 161L0 150Z" fill="#c8d8ae"></path><path d="M0 341L87 395L175 374L262 460L349 384L436 384L524 411L611 325L698 433L785 347L873 406L960 249L960 150L873 199L785 269L698 188L611 226L524 220L436 177L349 296L262 291L175 220L87 269L0 247Z" fill="#b3cc9c"></path><path d="M0 541L87 541L175 541L262 541L349 541L436 541L524 541L611 541L698 541L785 541L873 541L960 541L960 247L873 404L785 345L698 431L611 323L524 409L436 382L349 382L262 458L175 372L87 393L0 339Z" fill="#9dc08b"></path></svg>