<svg id="visual" viewBox="0 0 900 600" width="900" height="600" xmlns="http://www.w3.org/2000/svg" xmlns:xlink="http://www.w3.org/1999/xlink" version="1.1"><rect x="0" y="0" width="900" height="600" fill="#A9907E"></rect><path d="M0 141L39 85L78 45L117 120L157 134L196 76L235 159L274 71L313 120L352 119L391 150L430 117L470 171L509 138L548 107L587 134L626 179L665 56L704 53L743 119L783 164L822 50L861 105L900 63L900 601L861 601L822 601L783 601L743 601L704 601L665 601L626 601L587 601L548 601L509 601L470 601L430 601L391 601L352 601L313 601L274 601L235 601L196 601L157 601L117 601L78 601L39 601L0 601Z" fill="#f3deba"></path><path d="M0 131L39 115L78 104L117 221L157 124L196 229L235 224L274 143L313 123L352 208L391 196L430 245L470 238L509 240L548 197L587 157L626 177L665 240L704 127L743 190L783 125L822 165L861 223L900 135L900 601L861 601L822 601L783 601L743 601L704 601L665 601L626 601L587 601L548 601L509 601L470 601L430 601L391 601L352 601L313 601L274 601L235 601L196 601L157 601L117 601L78 601L39 601L0 601Z" fill="#e8dbb6"></path><path d="M0 169L39 232L78 268L117 267L157 227L196 169L235 231L274 288L313 227L352 238L391 286L430 209L470 298L509 290L548 251L587 210L626 252L665 187L704 219L743 250L783 281L822 280L861 194L900 201L900 601L861 601L822 601L783 601L743 601L704 601L665 601L626 601L587 601L548 601L509 601L470 601L430 601L391 601L352 601L313 601L274 601L235 601L196 601L157 601L117 601L78 601L39 601L0 601Z" fill="#ddd7b3"></path><path d="M0 352L39 231L78 272L117 341L157 230L196 269L235 294L274 291L313 338L352 279L391 316L430 230L470 303L509 252L548 270L587 294L626 284L665 346L704 329L743 246L783 236L822 335L861 262L900 266L900 601L861 601L822 601L783 601L743 601L704 601L665 601L626 601L587 601L548 601L509 601L470 601L430 601L391 601L352 601L313 601L274 601L235 601L196 601L157 601L117 601L78 601L39 601L0 601Z" fill="#d2d4b0"></path><path d="M0 384L39 328L78 335L117 404L157 411L196 385L235 298L274 314L313 392L352 389L391 389L430 323L470 315L509 294L548 400L587 325L626 398L665 328L704 312L743 299L783 347L822 372L861 322L900 347L900 601L861 601L822 601L783 601L743 601L704 601L665 601L626 601L587 601L548 601L509 601L470 601L430 601L391 601L352 601L313 601L274 601L235 601L196 601L157 601L117 601L78 601L39 601L0 601Z" fill="#c8d0ae"></path><path d="M0 388L39 413L78 448L117 373L157 394L196 445L235 386L274 393L313 385L352 388L391 442L430 358L470 457L509 367L548 413L587 450L626 447L665 424L704 360L743 431L783 451L822 387L861 438L900 421L900 601L861 601L822 601L783 601L743 601L704 601L665 601L626 601L587 601L548 601L509 601L470 601L430 601L391 601L352 601L313 601L274 601L235 601L196 601L157 601L117 601L78 601L39 601L0 601Z" fill="#beccac"></path><path d="M0 490L39 466L78 492L117 483L157 464L196 519L235 523L274 490L313 504L352 477L391 479L430 428L470 512L509 462L548 487L587 428L626 451L665 437L704 488L743 442L783 444L822 466L861 505L900 438L900 601L861 601L822 601L783 601L743 601L704 601L665 601L626 601L587 601L548 601L509 601L470 601L430 601L391 601L352 601L313 601L274 601L235 601L196 601L157 601L117 601L78 601L39 601L0 601Z" fill="#b4c8ab"></path><path d="M0 530L39 559L78 542L117 487L157 532L196 562L235 570L274 575L313 499L352 566L391 518L430 574L470 494L509 536L548 569L587 529L626 506L665 490L704 497L743 534L783 503L822 492L861 571L900 545L900 601L861 601L822 601L783 601L743 601L704 601L665 601L626 601L587 601L548 601L509 601L470 601L430 601L391 601L352 601L313 601L274 601L235 601L196 601L157 601L117 601L78 601L39 601L0 601Z" fill="#abc4aa"></path></svg>