<svg id="visual" viewBox="0 0 900 600" width="900" height="600" xmlns="http://www.w3.org/2000/svg" xmlns:xlink="http://www.w3.org/1999/xlink" version="1.1"><rect x="0" y="0" width="900" height="600" fill="#321E1E"></rect><path d="M0 418L129 416L257 422L386 371L514 436L643 403L771 423L900 363L900 601L771 601L643 601L514 601L386 601L257 601L129 601L0 601Z" fill="#4e3636"></path><path d="M0 449L129 426L257 393L386 419L514 460L643 450L771 454L900 459L900 601L771 601L643 601L514 601L386 601L257 601L129 601L0 601Z" fill="#564130"></path><path d="M0 501L129 471L257 437L386 451L514 509L643 440L771 501L900 476L900 601L771 601L643 601L514 601L386 601L257 601L129 601L0 601Z" fill="#4f5133"></path><path d="M0 487L129 507L257 505L386 540L514 522L643 519L771 511L900 508L900 601L771 601L643 601L514 601L386 601L257 601L129 601L0 601Z" fill="#3a6048"></path><path d="M0 546L129 546L257 543L386 532L514 567L643 569L771 559L900 562L900 601L771 601L643 601L514 601L386 601L257 601L129 601L0 601Z" fill="#116d6e"></path></svg>