<?xml version="1.0" standalone="no"?>
<!DOCTYPE svg PUBLIC "-//W3C//DTD SVG 20010904//EN"
 "http://www.w3.org/TR/2001/REC-SVG-20010904/DTD/svg10.dtd">
<svg version="1.0" xmlns="http://www.w3.org/2000/svg"
 width="600.000000pt" height="600.000000pt" viewBox="0 0 600.000000 600.000000"
 preserveAspectRatio="xMidYMid meet">

<g transform="translate(0.000000,600.000000) scale(0.100000,-0.100000)"
fill="#000000" stroke="none">
<path d="M2795 5993 c-612 -51 -1122 -243 -1603 -603 -142 -105 -426 -381
-536 -520 -890 -1123 -870 -2706 49 -3798 100 -118 310 -323 425 -416 178
-143 407 -283 622 -382 1055 -483 2288 -316 3176 431 118 100 323 310 416 425
439 549 678 1268 653 1965 -23 635 -223 1200 -607 1713 -105 142 -381 426
-520 536 -467 371 -1044 598 -1634 646 -120 9 -348 11 -441 3z m425 -443 c608
-55 1161 -312 1590 -740 395 -394 646 -901 726 -1465 23 -157 26 -521 6 -660
-84 -591 -330 -1093 -732 -1495 -263 -263 -592 -473 -930 -594 -93 -34 -273
-86 -278 -82 -2 2 6 44 18 92 12 49 25 145 30 214 6 103 13 141 40 215 45 124
119 270 169 330 103 124 123 216 119 555 -3 252 -3 256 25 360 70 260 138 428
215 530 23 30 70 106 104 168 166 301 300 459 454 537 148 75 242 255 214 413
-23 136 -52 167 -137 149 -51 -11 -52 -10 -97 27 -25 20 -50 35 -55 32 -5 -3
-13 -25 -19 -49 -13 -49 -42 -81 -69 -75 -23 5 -20 31 17 124 41 103 63 217
55 289 -13 128 -115 375 -155 375 -20 0 -91 -54 -258 -198 -272 -233 -597
-472 -739 -544 l-82 -41 -104 13 c-92 11 -110 11 -162 -5 -79 -23 -176 -73
-391 -202 -226 -136 -263 -149 -495 -169 -206 -17 -307 -40 -395 -89 -82 -46
-108 -78 -99 -124 15 -78 78 -165 233 -323 l95 -97 -66 -108 c-36 -59 -84
-148 -107 -198 -82 -178 -101 -212 -165 -291 -152 -185 -286 -394 -409 -639
l-81 -160 -80 -57 c-44 -31 -116 -77 -160 -102 l-80 -46 -18 23 c-99 122 -242
366 -315 537 -416 971 -204 2085 538 2830 432 433 994 690 1625 743 93 8 298
6 405 -3z"/>
</g>
</svg>
